<svg xmlns="http://www.w3.org/2000/svg" viewBox="0 0 24 24"><defs><style>.cls-1{fill:none;}.cls-2{fill:#fff;fill-rule:evenodd;}</style></defs><g id="Layer_2" data-name="Layer 2"><g id="Layer_1-2" data-name="Layer 1"><rect class="cls-1" width="24" height="24"/><path class="cls-2" d="M4.75,6.86h15a.75.75,0,0,1,.75.75v9a.74.74,0,0,1-.75.75h-15A.75.75,0,0,1,4,16.61v-9A.76.76,0,0,1,4.75,6.86Zm-1.5.75a1.5,1.5,0,0,1,1.5-1.5h15a1.5,1.5,0,0,1,1.5,1.5v9a1.5,1.5,0,0,1-1.5,1.5h-15a1.5,1.5,0,0,1-1.5-1.5ZM5.68,8.78a.38.38,0,1,0-.36.66l6.75,3.75a.38.38,0,0,0,.36,0l6.75-3.75a.37.37,0,0,0,.15-.51.38.38,0,0,0-.51-.15l-6.57,3.65Z"/></g></g></svg>